<svg width="14" height="16" viewBox="0 0 14 16" fill="none" xmlns="http://www.w3.org/2000/svg">
<path d="M7 3.99974C7.13261 3.99974 7.25979 4.05242 7.35355 4.14619C7.44732 4.23996 7.5 4.36713 7.5 4.49974V9.49974C7.5 9.63235 7.44732 9.75953 7.35355 9.8533C7.25979 9.94706 7.13261 9.99974 7 9.99974C6.86739 9.99974 6.74021 9.94706 6.64645 9.8533C6.55268 9.75953 6.5 9.63235 6.5 9.49974V4.49974C6.5 4.36713 6.55268 4.23996 6.64645 4.14619C6.74021 4.05242 6.86739 3.99974 7 3.99974ZM7 12.4997C7.19891 12.4997 7.38968 12.4207 7.53033 12.2801C7.67098 12.1394 7.75 11.9487 7.75 11.7497C7.75 11.5508 7.67098 11.3601 7.53033 11.2194C7.38968 11.0788 7.19891 10.9997 7 10.9997C6.80109 10.9997 6.61032 11.0788 6.46967 11.2194C6.32902 11.3601 6.25 11.5508 6.25 11.7497C6.25 11.9487 6.32902 12.1394 6.46967 12.2801C6.61032 12.4207 6.80109 12.4997 7 12.4997ZM6.723 0.0837417C6.80506 0.0291343 6.90143 0 7 0C7.09857 0 7.19494 0.0291343 7.277 0.0837417C9.16487 1.35644 11.3169 2.18421 13.571 2.50474C13.6901 2.52183 13.799 2.58129 13.8778 2.67221C13.9566 2.76313 14 2.87942 14 2.99974V7.49974C14 11.3907 11.693 14.2297 7.18 15.9667C7.06416 16.0114 6.93584 16.0114 6.82 15.9667C2.308 14.2297 0 11.3897 0 7.49974V2.99974C1.82515e-05 2.87927 0.04353 2.76286 0.122533 2.67192C0.201536 2.58097 0.310718 2.52161 0.43 2.50474C2.68377 2.18407 4.83543 1.3563 6.723 0.0837417ZM6.599 1.34574C4.88024 2.38574 2.98068 3.0921 1 3.42774V7.49974C1 10.8917 2.968 13.3627 7 14.9627C11.032 13.3627 13 10.8917 13 7.49974V3.42774C11.019 3.09222 9.11906 2.38586 7.4 1.34574L7 1.09674L6.6 1.34574H6.599Z" fill="#F8F8F8"/>
</svg>
