<svg width="98" height="92" viewBox="0 0 98 92" fill="none" xmlns="http://www.w3.org/2000/svg">
<g filter="url(#filter0_d_665_12232)">
<path d="M42.5948 48.3817L42.5946 35.7493L38.2564 35.7492L28.8692 46.3572L29.5808 48.3814L42.5948 48.3817Z" fill="#447ABB"/>
<ellipse rx="6.54058" ry="7.14252" transform="matrix(-1 0 0 1 60.4819 58.2614)" fill="#447ABB"/>
<ellipse rx="6.54058" ry="7.14252" transform="matrix(-1 0 0 1 36.5001 58.2614)" fill="#447ABB"/>
<path d="M27.2116 54.3926V54.6426H26.9616H25.7353C25.2191 54.6426 24.7589 55.1121 24.7589 55.7318V58.4103C24.7589 59.0299 25.2191 59.4995 25.7353 59.4995H29.4143H29.6643V59.7495C29.6643 64.0688 32.8685 67.5348 36.7725 67.5348C40.6765 67.5348 43.8806 64.0688 43.8806 59.7495V59.4995H44.1306H53.9415H54.1915V59.7495C54.1915 64.0688 57.3957 67.5348 61.2997 67.5348C65.2036 67.5348 68.4078 64.0688 68.4078 59.7495V59.4995H68.6578H69.8842C71.757 59.4995 73.3132 57.833 73.3132 55.7318V28.9474C73.3132 26.8462 71.757 25.1797 69.8842 25.1797H45.357C43.4842 25.1797 41.9279 26.8462 41.9279 28.9474V32.965V33.215H41.6779H38.2978C37.3988 33.215 36.5293 33.6091 35.8838 34.3141L28.2267 42.6758C27.5806 43.3814 27.2116 44.3417 27.2116 45.3445V54.3926ZM30.6407 46.6073H30.3907V46.3573V45.3445V45.2473L30.4563 45.1756L38.1134 36.8139L38.1877 36.7327H38.2978H41.6779H41.9279V36.9827V46.3573V46.6073H41.6779H30.6407ZM65.2287 59.7495C65.2287 62.0845 63.4891 64.0172 61.2997 64.0172C59.1102 64.0172 57.3706 62.0845 57.3706 59.7495C57.3706 57.4145 59.1102 55.4818 61.2997 55.4818C63.4891 55.4818 65.2287 57.4145 65.2287 59.7495ZM40.7016 59.7495C40.7016 62.0845 38.962 64.0172 36.7725 64.0172C34.583 64.0172 32.8434 62.0845 32.8434 59.7495C32.8434 57.4145 34.583 55.4818 36.7725 55.4818C38.962 55.4818 40.7016 57.4145 40.7016 59.7495Z" fill="#E5E5E5" stroke="#447ABB" stroke-width="0.5"/>
<path d="M57.3146 48.5746L52.3824 45.4697L57.3146 42.365L62.247 45.4697L57.3146 48.5746ZM56.1256 35.8081L51.9473 43.6989V38.4384L56.1256 35.8081ZM61.9282 44.1734L57.5322 41.406C57.3976 41.3213 57.2317 41.3213 57.097 41.406L52.7011 44.1734L57.3146 35.4607L61.9282 44.1734ZM62.6817 43.6988L58.5036 35.8082L62.6817 38.4384V43.6988ZM63.3349 37.7535L57.5322 34.1009C57.3975 34.0161 57.2317 34.0161 57.097 34.1009L51.2945 37.7535C51.1598 37.8383 51.0769 37.9949 51.0769 38.1645V45.4698C51.0769 45.6394 51.1598 45.7959 51.2945 45.8807L57.097 49.5334C57.1643 49.5758 57.2394 49.5969 57.3146 49.5969C57.3897 49.5969 57.4648 49.5758 57.5322 49.5334L63.3349 45.8807C63.4698 45.7959 63.5522 45.6394 63.5522 45.4698V38.1645C63.5522 37.9949 63.4698 37.8383 63.3349 37.7535Z" fill="#447ABB"/>
</g>
<defs>
<filter id="filter0_d_665_12232" x="0.508911" y="0.929688" width="97.0543" height="90.8552" filterUnits="userSpaceOnUse" color-interpolation-filters="sRGB">
<feFlood flood-opacity="0" result="BackgroundImageFix"/>
<feColorMatrix in="SourceAlpha" type="matrix" values="0 0 0 0 0 0 0 0 0 0 0 0 0 0 0 0 0 0 127 0" result="hardAlpha"/>
<feOffset/>
<feGaussianBlur stdDeviation="12"/>
<feComposite in2="hardAlpha" operator="out"/>
<feColorMatrix type="matrix" values="0 0 0 0 0.370833 0 0 0 0 0.370833 0 0 0 0 0.370833 0 0 0 1 0"/>
<feBlend mode="normal" in2="BackgroundImageFix" result="effect1_dropShadow_665_12232"/>
<feBlend mode="normal" in="SourceGraphic" in2="effect1_dropShadow_665_12232" result="shape"/>
</filter>
</defs>
</svg>
