<svg width="90" height="84" viewBox="0 0 90 84" fill="none" xmlns="http://www.w3.org/2000/svg">
<g filter="url(#filter0_d_665_12208)">
<path d="M36.8042 43.8858L36.804 31.2534L32.4658 31.2533L23.0787 41.8613L23.7902 43.8856L36.8042 43.8858Z" fill="#F47878"/>
<ellipse rx="6.54058" ry="7.14252" transform="matrix(-1 0 0 1 54.6913 53.7656)" fill="#F47878"/>
<ellipse rx="6.54058" ry="7.14252" transform="matrix(-1 0 0 1 30.7094 53.7656)" fill="#F47878"/>
<path d="M19.9446 49.8967H21.171V40.8486C21.171 39.7856 21.5619 38.7645 22.2517 38.0111L29.9088 29.6494C30.5986 28.8961 31.5337 28.4692 32.5071 28.4692H35.8873V24.4515C35.8873 22.2334 37.5352 20.4338 39.5663 20.4338H64.0935C66.1247 20.4338 67.7726 22.2334 67.7726 24.4515V51.236C67.7726 53.4541 66.1247 55.2536 64.0935 55.2536H62.8672C62.8672 59.6898 59.5713 63.289 55.509 63.289C51.4467 63.289 48.1509 59.6898 48.1509 55.2536H38.34C38.34 59.6898 35.0442 63.289 30.9818 63.289C26.9195 63.289 23.6237 59.6898 23.6237 55.2536H19.9446C19.2701 55.2536 18.7183 54.651 18.7183 53.9144V51.236C18.7183 50.4994 19.2701 49.8967 19.9446 49.8967ZM55.509 59.2713C57.5402 59.2713 59.1881 57.4717 59.1881 55.2536C59.1881 53.0355 57.5402 51.236 55.509 51.236C53.4778 51.236 51.8299 53.0355 51.8299 55.2536C51.8299 57.4717 53.4778 59.2713 55.509 59.2713ZM30.9818 59.2713C33.013 59.2713 34.6609 57.4717 34.6609 55.2536C34.6609 53.0355 33.013 51.236 30.9818 51.236C28.9507 51.236 27.3028 53.0355 27.3028 55.2536C27.3028 57.4717 28.9507 59.2713 30.9818 59.2713ZM24.85 41.8614H35.8873V32.4868H32.5071L24.85 40.8486V41.8614Z" fill="#447ABB"/>
<path d="M51.5239 44.0787L46.5917 40.9739L51.5239 37.8691L56.4563 40.9739L51.5239 44.0787ZM50.3349 31.3123L46.1567 39.2031V33.9425L50.3349 31.3123ZM56.1375 39.6776L51.7415 36.9102C51.607 36.8255 51.441 36.8255 51.3063 36.9102L46.9104 39.6776L51.5239 30.9648L56.1375 39.6776ZM56.891 39.203L52.7129 31.3124L56.891 33.9425V39.203ZM57.5442 33.2577L51.7415 29.6051C51.6069 29.5202 51.441 29.5202 51.3063 29.6051L45.5038 33.2577C45.3692 33.3424 45.2863 33.4991 45.2863 33.6686V40.974C45.2863 41.1435 45.3692 41.3001 45.5038 41.3849L51.3063 45.0375C51.3737 45.0799 51.4488 45.1011 51.5239 45.1011C51.5991 45.1011 51.6742 45.0799 51.7415 45.0375L57.5442 41.3849C57.6791 41.3001 57.7616 41.1435 57.7616 40.974V33.6686C57.7616 33.4991 57.6791 33.3424 57.5442 33.2577Z" fill="white"/>
</g>
<defs>
<filter id="filter0_d_665_12208" x="0.718262" y="0.433838" width="89.0543" height="82.8552" filterUnits="userSpaceOnUse" color-interpolation-filters="sRGB">
<feFlood flood-opacity="0" result="BackgroundImageFix"/>
<feColorMatrix in="SourceAlpha" type="matrix" values="0 0 0 0 0 0 0 0 0 0 0 0 0 0 0 0 0 0 127 0" result="hardAlpha"/>
<feOffset dx="2"/>
<feGaussianBlur stdDeviation="10"/>
<feComposite in2="hardAlpha" operator="out"/>
<feColorMatrix type="matrix" values="0 0 0 0 1 0 0 0 0 0 0 0 0 0 0 0 0 0 1 0"/>
<feBlend mode="normal" in2="BackgroundImageFix" result="effect1_dropShadow_665_12208"/>
<feBlend mode="normal" in="SourceGraphic" in2="effect1_dropShadow_665_12208" result="shape"/>
</filter>
</defs>
</svg>
