<svg width="90" height="84" viewBox="0 0 90 84" fill="none" xmlns="http://www.w3.org/2000/svg">
<g filter="url(#filter0_d_665_12214)">
<path d="M36.2899 44.2669L36.2897 31.6345L31.9515 31.6344L22.5643 42.2424L23.2759 44.2667L36.2899 44.2669Z" fill="#43CA82"/>
<ellipse rx="6.54058" ry="7.14252" transform="matrix(-1 0 0 1 54.177 54.1467)" fill="#43CA82"/>
<ellipse rx="6.54058" ry="7.14252" transform="matrix(-1 0 0 1 30.1952 54.1467)" fill="#43CA82"/>
<path d="M19.4303 50.2778H20.6567V41.2297C20.6567 40.1667 21.0476 39.1456 21.7374 38.3922L29.3945 30.0305C30.0843 29.2772 31.0194 28.8503 31.9928 28.8503H35.373V24.8326C35.373 22.6145 37.0209 20.8149 39.0521 20.8149H63.5792C65.6104 20.8149 67.2583 22.6145 67.2583 24.8326V51.6171C67.2583 53.8352 65.6104 55.6347 63.5792 55.6347H62.3529C62.3529 60.0709 59.057 63.6701 54.9947 63.6701C50.9324 63.6701 47.6366 60.0709 47.6366 55.6347H37.8257C37.8257 60.0709 34.5299 63.6701 30.4676 63.6701C26.4052 63.6701 23.1094 60.0709 23.1094 55.6347H19.4303C18.7558 55.6347 18.204 55.0321 18.204 54.2955V51.6171C18.204 50.8805 18.7558 50.2778 19.4303 50.2778ZM54.9947 59.6524C57.0259 59.6524 58.6738 57.8528 58.6738 55.6347C58.6738 53.4167 57.0259 51.6171 54.9947 51.6171C52.9636 51.6171 51.3156 53.4167 51.3156 55.6347C51.3156 57.8528 52.9636 59.6524 54.9947 59.6524ZM30.4676 59.6524C32.4987 59.6524 34.1466 57.8528 34.1466 55.6347C34.1466 53.4167 32.4987 51.6171 30.4676 51.6171C28.4364 51.6171 26.7885 53.4167 26.7885 55.6347C26.7885 57.8528 28.4364 59.6524 30.4676 59.6524ZM24.3358 42.2425H35.373V32.8679H31.9928L24.3358 41.2297V42.2425Z" fill="#447ABB"/>
<path d="M51.0096 44.4598L46.0775 41.355L51.0096 38.2502L55.942 41.355L51.0096 44.4598ZM49.8206 31.6934L45.6424 39.5842V34.3236L49.8206 31.6934ZM55.6233 40.0587L51.2272 37.2913C51.0927 37.2066 50.9267 37.2066 50.7921 37.2913L46.3962 40.0587L51.0096 31.3459L55.6233 40.0587ZM56.3768 39.5841L52.1987 31.6935L56.3768 34.3236V39.5841ZM57.03 33.6388L51.2272 29.9862C51.0926 29.9013 50.9267 29.9013 50.7921 29.9862L44.9896 33.6388C44.8549 33.7235 44.772 33.8802 44.772 34.0497V41.3551C44.772 41.5246 44.8549 41.6812 44.9896 41.766L50.7921 45.4186C50.8594 45.461 50.9345 45.4822 51.0096 45.4822C51.0848 45.4822 51.1599 45.461 51.2272 45.4186L57.03 41.766C57.1648 41.6812 57.2473 41.5246 57.2473 41.3551V34.0497C57.2473 33.8802 57.1648 33.7235 57.03 33.6388Z" fill="white"/>
</g>
<defs>
<filter id="filter0_d_665_12214" x="0.203979" y="0.814941" width="89.0543" height="82.8552" filterUnits="userSpaceOnUse" color-interpolation-filters="sRGB">
<feFlood flood-opacity="0" result="BackgroundImageFix"/>
<feColorMatrix in="SourceAlpha" type="matrix" values="0 0 0 0 0 0 0 0 0 0 0 0 0 0 0 0 0 0 127 0" result="hardAlpha"/>
<feOffset dx="2"/>
<feGaussianBlur stdDeviation="10"/>
<feComposite in2="hardAlpha" operator="out"/>
<feColorMatrix type="matrix" values="0 0 0 0 0.263889 0 0 0 0 0.791667 0 0 0 0 0.510642 0 0 0 1 0"/>
<feBlend mode="normal" in2="BackgroundImageFix" result="effect1_dropShadow_665_12214"/>
<feBlend mode="normal" in="SourceGraphic" in2="effect1_dropShadow_665_12214" result="shape"/>
</filter>
</defs>
</svg>
