<svg width="4" height="3" viewBox="0 0 4 3" fill="none" xmlns="http://www.w3.org/2000/svg">
<path d="M1.86455 2.90508C1.61247 2.90508 1.38226 2.84362 1.17393 2.7207C0.965592 2.5957 0.798926 2.42904 0.673926 2.2207C0.551009 2.01237 0.489551 1.78216 0.489551 1.53008C0.489551 1.27591 0.551009 1.0457 0.673926 0.839453C0.798926 0.63112 0.965592 0.465495 1.17393 0.342578C1.38226 0.217578 1.61247 0.155078 1.86455 0.155078C2.11872 0.155078 2.34893 0.217578 2.55518 0.342578C2.76351 0.465495 2.92913 0.63112 3.05205 0.839453C3.17705 1.0457 3.23955 1.27591 3.23955 1.53008C3.23955 1.78216 3.17705 2.01237 3.05205 2.2207C2.92913 2.42904 2.76351 2.5957 2.55518 2.7207C2.34893 2.84362 2.11872 2.90508 1.86455 2.90508Z" fill="#646464"/>
</svg>
