<svg width="18" height="18" viewBox="0 0 18 18" fill="none" xmlns="http://www.w3.org/2000/svg">
<path d="M16.338 14.6894C15.9114 13.679 15.2924 12.7612 14.5154 11.9872C13.7407 11.2109 12.8231 10.592 11.8131 10.1646C11.8041 10.1601 11.795 10.1578 11.786 10.1533C13.1948 9.13568 14.1106 7.47814 14.1106 5.60804C14.1106 2.51005 11.6006 0 8.50257 0C5.40458 0 2.89453 2.51005 2.89453 5.60804C2.89453 7.47814 3.81036 9.13568 5.21915 10.1555C5.21011 10.16 5.20106 10.1623 5.19202 10.1668C4.17895 10.5942 3.26991 11.207 2.48975 11.9894C1.71347 12.7641 1.09454 13.6817 0.667142 14.6917C0.247267 15.6805 0.0208197 16.7406 5.65462e-05 17.8146C-0.000547008 17.8387 0.00368622 17.8627 0.0125069 17.8852C0.0213276 17.9077 0.0345572 17.9281 0.0514162 17.9454C0.0682753 17.9627 0.0884226 17.9764 0.110671 17.9858C0.132919 17.9952 0.156819 18 0.180961 18H1.53774C1.63724 18 1.71639 17.9209 1.71865 17.8236C1.76388 16.0779 2.46488 14.443 3.70408 13.2038C4.98624 11.9216 6.689 11.2161 8.50257 11.2161C10.3161 11.2161 12.0189 11.9216 13.3011 13.2038C14.5403 14.443 15.2413 16.0779 15.2865 17.8236C15.2887 17.9231 15.3679 18 15.4674 18H16.8242C16.8483 18 16.8722 17.9952 16.8945 17.9858C16.9167 17.9764 16.9369 17.9627 16.9537 17.9454C16.9706 17.9281 16.9838 17.9077 16.9926 17.8852C17.0014 17.8627 17.0057 17.8387 17.0051 17.8146C16.9825 16.7337 16.7586 15.6822 16.338 14.6894Z" fill="#F8F8F8"/>
<path d="M8.50258 9.49764C7.46464 9.49764 6.48775 9.09287 5.75283 8.35794C5.0179 7.62302 4.61313 6.64614 4.61313 5.6082C4.61313 4.57026 5.0179 3.59337 5.75283 2.85845C6.48775 2.12352 7.46464 1.71875 8.50258 1.71875C9.54051 1.71875 10.5174 2.12352 11.2523 2.85845C11.9872 3.59337 12.392 4.57026 12.392 5.6082C12.392 6.64614 11.9872 7.62302 11.2523 8.35794C10.5174 9.09287 9.54051 9.49764 8.50258 9.49764Z" fill="#447ABB"/>
</svg>
