<svg width="27" height="27" viewBox="0 0 27 27" fill="none"
    xmlns="http://www.w3.org/2000/svg">
    <path d="M9.33333 26H17.6667M9.33333 26V19.0556M9.33333 26H1.83333C1.61232 26 1.40036 25.9122 1.24408 25.7559C1.0878 25.5996 1 25.3877 1 25.1667V19.8889C1 19.6679 1.0878 19.4559 1.24408 19.2996C1.40036 19.1434 1.61232 19.0556 1.83333 19.0556H9.33333M17.6667 26V9.33333M17.6667 26H25.1667C25.3877 26 25.5996 25.9122 25.7559 25.7559C25.9122 25.5996 26 25.3877 26 25.1667V1.83333C26 1.61232 25.9122 1.40036 25.7559 1.24408C25.5996 1.0878 25.3877 1 25.1667 1H18.5C18.279 1 18.067 1.0878 17.9107 1.24408C17.7545 1.40036 17.6667 1.61232 17.6667 1.83333V9.33333M17.6667 9.33333H10.1667C9.94565 9.33333 9.73369 9.42113 9.57741 9.57741C9.42113 9.73369 9.33333 9.94565 9.33333 10.1667V19.0556" stroke="#999999" stroke-width="1.5"/>
</svg>
