<svg width="18" height="18" viewBox="0 0 18 18" fill="none" xmlns="http://www.w3.org/2000/svg">
<path d="M11.5596 16.2H4.05C2.8089 16.2 1.8 15.1911 1.8 13.95C1.8 12.7089 2.8089 11.7 4.05 11.7H10.35C12.087 11.7 13.5 10.287 13.5 8.55C13.5 6.813 12.087 5.4 10.35 5.4H5.9751C5.64458 6.04789 5.23528 6.65247 4.7565 7.2H10.35C11.0943 7.2 11.7 7.8057 11.7 8.55C11.7 9.2943 11.0943 9.9 10.35 9.9H4.05C1.8171 9.9 0 11.7171 0 13.95C0 16.1829 1.8171 18 4.05 18H12.6837C12.2421 17.4445 11.865 16.8406 11.5596 16.2ZM2.7 0C1.2114 0 0 1.2114 0 2.7C0 5.5692 2.7 7.2 2.7 7.2C2.7 7.2 5.4 5.5683 5.4 2.7C5.4 1.2114 4.1886 0 2.7 0ZM2.7 4.05C2.52266 4.04994 2.34706 4.01495 2.18324 3.94703C2.01942 3.87911 1.87058 3.77959 1.74522 3.65414C1.61986 3.5287 1.52044 3.3798 1.45262 3.21593C1.38481 3.05206 1.34994 2.87644 1.35 2.6991C1.35006 2.52176 1.38505 2.34616 1.45297 2.18234C1.52089 2.01852 1.62041 1.86968 1.74586 1.74432C1.8713 1.61896 2.0202 1.51954 2.18407 1.45172C2.34794 1.38391 2.52356 1.34904 2.7009 1.3491C3.05906 1.34922 3.40251 1.49161 3.65568 1.74496C3.90885 1.9983 4.05102 2.34184 4.0509 2.7C4.05078 3.05816 3.90839 3.40161 3.65504 3.65478C3.4017 3.90795 3.05816 4.05012 2.7 4.05Z" fill="#447ABB"/>
<path d="M15.3 10.8C13.8114 10.8 12.6 12.0114 12.6 13.5C12.6 16.3692 15.3 18 15.3 18C15.3 18 18 16.3683 18 13.5C18 12.0114 16.7886 10.8 15.3 10.8ZM15.3 14.85C15.1226 14.85 14.947 14.815 14.7832 14.7471C14.6194 14.6792 14.4706 14.5796 14.3452 14.4542C14.2198 14.3287 14.1204 14.1798 14.0526 14.016C13.9848 13.8521 13.9499 13.6765 13.95 13.4991C13.95 13.3218 13.985 13.1462 14.0529 12.9824C14.1209 12.8186 14.2204 12.6697 14.3458 12.5444C14.4713 12.419 14.6202 12.3196 14.784 12.2518C14.9479 12.184 15.1235 12.1491 15.3009 12.1491C15.659 12.1493 16.0025 12.2917 16.2557 12.545C16.5088 12.7983 16.651 13.1419 16.6509 13.5C16.6508 13.8582 16.5084 14.2017 16.255 14.4548C16.0017 14.708 15.6581 14.8502 15.3 14.85Z" fill="#447ABB"/>
</svg>
