<svg width="19" height="19" viewBox="0 0 19 19" fill="none" xmlns="http://www.w3.org/2000/svg">
<path d="M4.56881 14.5113C5.97131 15.8863 7.63506 16.5738 9.56006 16.5738C11.4851 16.5738 13.1351 15.8863 14.5101 14.5113C15.9126 13.1088 16.6138 11.4451 16.6138 9.52008C16.6138 7.59508 15.9126 5.94508 14.5101 4.57008C13.1351 3.16758 11.4851 2.46633 9.56006 2.46633C7.63506 2.46633 5.97131 3.16758 4.56881 4.57008C3.19381 5.94508 2.50631 7.59508 2.50631 9.52008C2.50631 11.4451 3.19381 13.1088 4.56881 14.5113ZM3.33131 3.33258C5.06381 1.60008 7.14006 0.733827 9.56006 0.733827C11.9801 0.733827 14.0426 1.60008 15.7476 3.33258C17.4801 5.03758 18.3463 7.10008 18.3463 9.52008C18.3463 11.9401 17.4801 14.0163 15.7476 15.7488C14.0426 17.4538 11.9801 18.3063 9.56006 18.3063C7.14006 18.3063 5.06381 17.4538 3.33131 15.7488C1.62631 14.0163 0.773808 11.9401 0.773808 9.52008C0.773808 7.10008 1.62631 5.03758 3.33131 3.33258ZM8.69381 5.10633H10.4263V10.3863H8.69381V5.10633ZM8.69381 12.1601H10.4263V13.9338H8.69381V12.1601Z" fill="#F47878"/>
</svg>
