<svg width="20" height="20" viewBox="0 0 20 20" fill="none" xmlns="http://www.w3.org/2000/svg">
<path d="M4.51567 15.8348C6.03075 17.3202 7.82806 18.0629 9.90759 18.0629C11.9871 18.0629 13.7696 17.3202 15.255 15.8348C16.77 14.3197 17.5276 12.5224 17.5276 10.4429C17.5276 8.36334 16.77 6.58089 15.255 5.09551C13.7696 3.58042 11.9871 2.82288 9.90759 2.82288C7.82806 2.82288 6.03075 3.58042 4.51567 5.09551C3.03029 6.58089 2.2876 8.36334 2.2876 10.4429C2.2876 12.5224 3.03029 14.3197 4.51567 15.8348ZM3.17882 3.75867C5.0504 1.88709 7.29333 0.951299 9.90759 0.951299C12.5219 0.951299 14.7499 1.88709 16.5918 3.75867C18.4634 5.60054 19.3992 7.82861 19.3992 10.4429C19.3992 13.0571 18.4634 15.3001 16.5918 17.1716C14.7499 19.0135 12.5219 19.9344 9.90759 19.9344C7.29333 19.9344 5.0504 19.0135 3.17882 17.1716C1.33695 15.3001 0.416019 13.0571 0.416019 10.4429C0.416019 7.82861 1.33695 5.60054 3.17882 3.75867ZM8.9718 5.67481H10.8434V11.3787H8.9718V5.67481ZM8.9718 13.2948H10.8434V15.2109H8.9718V13.2948Z" fill="#FFF786"/>
</svg>
