<svg width="18" height="18" viewBox="0 0 45 41" fill="none" xmlns="http://www.w3.org/2000/svg">
<path fill-rule="evenodd" clip-rule="evenodd" d="M37.269 2.65294C37.269 3.56786 36.5295 4.30589 35.6217 4.30589C34.714 4.30589 33.9745 3.56786 33.9745 2.65294C33.9745 1.73803 34.714 1 35.6217 1C36.5295 1 37.269 1.73803 37.269 2.65294ZM38.269 2.65294C38.269 4.11812 37.0838 5.30589 35.6217 5.30589C35.129 5.30589 34.6677 5.17099 34.2726 4.93604C34.2317 5.00385 34.1821 5.06787 34.1236 5.12644L25.7406 13.5274C25.6806 13.5875 25.6149 13.6384 25.5452 13.6801C25.7801 14.0762 25.915 14.5389 25.915 15.0332C25.915 16.4984 24.7298 17.6861 23.2677 17.6861C21.8057 17.6861 20.6205 16.4984 20.6205 15.0332C20.6205 14.8755 20.6342 14.721 20.6605 14.5708C20.6158 14.5627 20.571 14.5515 20.5266 14.5369L14.2534 12.4844C13.8623 13.46 12.9094 14.1489 11.7959 14.1489C11.5965 14.1489 11.4022 14.1268 11.2153 14.0849C11.1936 14.2343 11.1376 14.3811 11.0452 14.5132L6.88023 20.4699C6.87067 20.4836 6.86082 20.4969 6.85071 20.51C7.1857 20.9544 7.38437 21.5077 7.38437 22.1076C7.38437 23.5728 6.19915 24.7606 4.73711 24.7606C3.27506 24.7606 2.08984 23.5728 2.08984 22.1076C2.08984 20.6424 3.27506 19.4547 4.73711 19.4547C4.87706 19.4547 5.01448 19.4656 5.14857 19.4865C5.17384 19.4305 5.20466 19.376 5.24115 19.3239L9.40611 13.3672C9.48335 13.2567 9.57888 13.1666 9.68576 13.0981C9.34868 12.653 9.14866 12.0979 9.14866 11.496C9.14866 10.0308 10.3339 8.84303 11.7959 8.84303C12.9111 8.84303 13.8653 9.53413 14.2552 10.5123C14.4165 10.4812 14.5877 10.4894 14.7548 10.5441L21.1485 12.6361C21.3398 12.6987 21.4993 12.8134 21.6166 12.9594C22.0693 12.5969 22.6433 12.3802 23.2677 12.3802C23.5521 12.3802 23.826 12.4252 24.0827 12.5083C24.1299 12.3645 24.2106 12.2292 24.3249 12.1147L32.7079 3.71375C32.8225 3.59887 32.9582 3.51769 33.1024 3.47022C33.0194 3.21278 32.9745 2.93812 32.9745 2.65294C32.9745 1.18776 34.1597 0 35.6217 0C37.0838 0 38.269 1.18776 38.269 2.65294ZM44.6224 4.86438C44.6224 4.03595 43.9509 3.36438 43.1224 3.36438C42.294 3.36438 41.6224 4.03595 41.6224 4.86438V37.4105H37.5042V25.6455C37.5042 25.0933 37.0565 24.6455 36.5042 24.6455C35.9519 24.6455 35.5042 25.0933 35.5042 25.6455V37.4105H28.68V22.5504C28.68 21.9982 28.2323 21.5504 27.68 21.5504C27.1277 21.5504 26.68 21.9982 26.68 22.5504V37.4105H21.6205V31.8349C21.6205 31.2826 21.1728 30.8349 20.6205 30.8349C20.0682 30.8349 19.6205 31.2826 19.6205 31.8349V37.4105H14.5617L14.5617 23.8762C14.5617 23.3239 14.1139 22.8762 13.5617 22.8762C13.0094 22.8762 12.5617 23.3239 12.5617 23.8762L12.5617 37.4105H7.06069V30.5077C7.06069 29.9555 6.61298 29.5077 6.06069 29.5077C5.50841 29.5077 5.06069 29.9555 5.06069 30.5077V37.4105H2.08984C1.26142 37.4105 0.589844 38.0821 0.589844 38.9105C0.589844 39.7389 1.26142 40.4105 2.08984 40.4105H43.1224H44.6224V38.9105V4.86438ZM4.73711 20.4547C4.93821 20.4547 5.13105 20.4909 5.30943 20.5572C5.36116 20.616 5.42066 20.6696 5.48767 20.7164C5.59406 20.7908 5.70989 20.8416 5.82895 20.8699C6.16938 21.1724 6.38437 21.6143 6.38437 22.1076C6.38437 23.0225 5.64485 23.7606 4.73711 23.7606C3.82937 23.7606 3.08984 23.0225 3.08984 22.1076C3.08984 21.1927 3.82937 20.4547 4.73711 20.4547ZM13.4432 11.496C13.4432 12.4109 12.7037 13.1489 11.7959 13.1489C10.8882 13.1489 10.1487 12.4109 10.1487 11.496C10.1487 10.5811 10.8882 9.84303 11.7959 9.84303C12.7037 9.84303 13.4432 10.5811 13.4432 11.496ZM23.2677 16.6861C24.1755 16.6861 24.915 15.9481 24.915 15.0332C24.915 14.1183 24.1755 13.3802 23.2677 13.3802C22.36 13.3802 21.6205 14.1183 21.6205 15.0332C21.6205 15.9481 22.36 16.6861 23.2677 16.6861Z" fill="white"/>
</svg>
