<svg width="11" height="11" viewBox="0 0 11 11" fill="none" xmlns="http://www.w3.org/2000/svg">
<path d="M3.70001 9L1.09501 9.8685C1.04988 9.88357 1.0018 9.88768 0.954764 9.88051C0.907724 9.87333 0.863066 9.85507 0.824478 9.82722C0.785889 9.79938 0.754477 9.76276 0.732835 9.72038C0.711193 9.678 0.699943 9.63108 0.700013 9.5835V2.2165C0.700025 2.15357 0.719828 2.09224 0.756617 2.04118C0.793407 1.99012 0.845321 1.95193 0.905013 1.932L3.70001 1M3.70001 9L6.70001 10M3.70001 9V1M6.70001 10L9.49501 9.0685C9.55479 9.04854 9.60676 9.01027 9.64355 8.95912C9.68035 8.90796 9.7001 8.84652 9.70001 8.7835V1.416C9.7 1.36846 9.68869 1.3216 9.66702 1.27929C9.64534 1.23697 9.61392 1.20042 9.57534 1.17263C9.53677 1.14484 9.49214 1.12663 9.44514 1.11947C9.39814 1.11232 9.35011 1.11644 9.30501 1.1315L6.70001 2M6.70001 10V2M6.70001 2L3.70001 1" stroke="#8DC7E7" stroke-width="0.8" stroke-linecap="round" stroke-linejoin="round"/>
</svg>
