<svg width="20" height="18" viewBox="0 0 20 18" fill="none" xmlns="http://www.w3.org/2000/svg">
<path d="M11.8214 11.8098H12.7634V14.0528H11.8214V11.8098ZM5.93427 5.92261H6.87622V8.16562H5.93427V5.92261ZM5.93427 9.49611H6.87622V11.7038H5.93427V9.49611Z" fill="white"/>
<path d="M17.6615 7.19414V15.1595L12.7634 16.6901V15.342H11.8214V16.5194L6.87621 13.982V12.9871H5.93427V13.9997L1.17744 15.9601V5.17484L5.93427 3.21441V4.5979H6.87621V3.2203L11.8214 5.75178V6.98809H12.7634V5.88719L13.1048 5.78122C12.8321 5.45721 12.6062 5.09654 12.4337 4.70975L6.7467 1.83093C6.6692 1.79507 6.58483 1.77649 6.49943 1.77649C6.41404 1.77649 6.32967 1.79507 6.25217 1.83093L0.365011 4.23878C0.256573 4.28333 0.163903 4.35923 0.0988748 4.45678C0.0338462 4.55432 -0.000579753 4.66906 7.38696e-06 4.78629V16.8432C0.000487707 16.9396 0.0246442 17.0344 0.0703537 17.1193C0.116063 17.2042 0.181927 17.2766 0.262155 17.3301C0.342384 17.3836 0.434522 17.4166 0.530472 17.4261C0.626422 17.4356 0.723246 17.4215 0.812436 17.3848L6.47589 15.0299L12.1217 17.9264C12.2055 17.9694 12.2983 17.9916 12.3925 17.9912C12.4508 18.0029 12.5108 18.0029 12.5691 17.9912L18.4563 16.1544C18.5803 16.1155 18.688 16.0367 18.7626 15.9302C18.8371 15.8237 18.8743 15.6955 18.8684 15.5657V6.6584C18.495 6.89607 18.0882 7.07664 17.6615 7.19414Z" fill="white"/>
<path d="M16.4841 5.88716C18.1097 5.88716 19.4276 4.56928 19.4276 2.94358C19.4276 1.31789 18.1097 0 16.4841 0C14.8584 0 13.5405 1.31789 13.5405 2.94358C13.5405 4.56928 14.8584 5.88716 16.4841 5.88716Z" fill="white"/>
</svg>
