<svg width="20" height="18" viewBox="0 0 20 18" fill="none" xmlns="http://www.w3.org/2000/svg">
<path d="M11.8214 11.8095H12.7634V14.0525H11.8214V11.8095ZM5.93427 5.92236H6.87622V8.16537H5.93427V5.92236ZM5.93427 9.49587H6.87622V11.7036H5.93427V9.49587Z" fill="#447ABB"/>
<path d="M17.6615 7.19426V15.1596L12.7634 16.6903V15.3421H11.8214V16.5195L6.87621 13.9822V12.9872H5.93427V13.9998L1.17744 15.9602V5.17496L5.93427 3.21454V4.59802H6.87621V3.22042L11.8214 5.7519V6.98821H12.7634V5.88731L13.1048 5.78134C12.8321 5.45733 12.6062 5.09666 12.4337 4.70988L6.7467 1.83105C6.6692 1.79519 6.58483 1.77661 6.49943 1.77661C6.41404 1.77661 6.32967 1.79519 6.25217 1.83105L0.365011 4.2389C0.256573 4.28345 0.163903 4.35936 0.0988748 4.4569C0.0338462 4.55444 -0.000579753 4.66918 7.38696e-06 4.78641V16.8433C0.000487707 16.9397 0.0246442 17.0346 0.0703537 17.1195C0.116063 17.2044 0.181927 17.2767 0.262155 17.3302C0.342384 17.3837 0.434522 17.4167 0.530472 17.4262C0.626422 17.4358 0.723246 17.4216 0.812436 17.3849L6.47589 15.0301L12.1217 17.9266C12.2055 17.9695 12.2983 17.9917 12.3925 17.9913C12.4508 18.003 12.5108 18.003 12.5691 17.9913L18.4563 16.1545C18.5803 16.1157 18.688 16.0368 18.7626 15.9303C18.8371 15.8238 18.8743 15.6957 18.8684 15.5658V6.65853C18.495 6.8962 18.0882 7.07677 17.6615 7.19426Z" fill="#447ABB"/>
<path d="M16.4841 5.88716C18.1097 5.88716 19.4276 4.56928 19.4276 2.94358C19.4276 1.31789 18.1097 0 16.4841 0C14.8584 0 13.5405 1.31789 13.5405 2.94358C13.5405 4.56928 14.8584 5.88716 16.4841 5.88716Z" fill="#447ABB"/>
</svg>
