<svg width="17" height="17" viewBox="0 0 17 17" fill="none" xmlns="http://www.w3.org/2000/svg">
<path d="M11.2314 13.0176V13.6097C11.2314 14.2378 10.9411 14.8402 10.4244 15.2844C9.90767 15.7285 9.20686 15.9781 8.47612 15.9781C7.74538 15.9781 7.04457 15.7285 6.52786 15.2844C6.01114 14.8402 5.72086 14.2378 5.72086 13.6097V13.0176M15.8671 11.8123C14.7616 10.6492 13.981 10.0571 13.981 6.85049C13.981 3.91405 12.2366 2.86789 10.8009 2.35979C10.6102 2.29244 10.4306 2.13776 10.3725 1.96938C10.1207 1.23258 9.41463 0.583496 8.47612 0.583496C7.53761 0.583496 6.83114 1.23295 6.58188 1.97012C6.52376 2.14035 6.34424 2.29244 6.15352 2.35979C4.71605 2.86863 2.97335 3.91109 2.97335 6.85049C2.97119 10.0571 2.19068 10.6492 1.08513 11.8123C0.627069 12.2941 1.0283 13.0176 1.82948 13.0176H15.1271C15.9239 13.0176 16.3226 12.2919 15.8671 11.8123Z" stroke="#447ABB" stroke-linecap="round" stroke-linejoin="round"/>
</svg>
