<svg width="18" height="18" viewBox="0 0 18 18" fill="none" xmlns="http://www.w3.org/2000/svg">
<path d="M5.01429 0C4.52464 0 4.03979 0.0964424 3.58742 0.283821C3.13505 0.471199 2.72402 0.745843 2.37779 1.09207C1.67854 1.79132 1.28571 2.73969 1.28571 3.72857V6.42857H0.642857C0.472361 6.42857 0.308848 6.4963 0.188288 6.61686C0.0677294 6.73742 0 6.90093 0 7.07143C0 7.24192 0.0677294 7.40544 0.188288 7.526C0.308848 7.64656 0.472361 7.71429 0.642857 7.71429H1.28571V16.3286C1.28571 16.7719 1.46181 17.197 1.77526 17.5105C2.08872 17.8239 2.51385 18 2.95714 18H4.75714C4.97664 18 5.19398 17.9568 5.39677 17.8728C5.59956 17.7888 5.78381 17.6657 5.93902 17.5105C6.09423 17.3552 6.21734 17.171 6.30134 16.9682C6.38534 16.7654 6.42857 16.5481 6.42857 16.3286V15.4286H11.5714V16.3286C11.5714 16.7719 11.7475 17.197 12.061 17.5105C12.3744 17.8239 12.7996 18 13.2429 18H15.0429C15.4861 18 15.9113 17.8239 16.2247 17.5105C16.5382 17.197 16.7143 16.7719 16.7143 16.3286V7.71429H17.3571C17.5276 7.71429 17.6912 7.64656 17.8117 7.526C17.9323 7.40544 18 7.24192 18 7.07143C18 6.90093 17.9323 6.73742 17.8117 6.61686C17.6912 6.4963 17.5276 6.42857 17.3571 6.42857H16.7143V3.72857C16.7143 2.73969 16.3215 1.79132 15.6222 1.09207C14.923 0.392831 13.9746 0 12.9857 0H5.01429Z" fill="white"/>
<path d="M15.4286 3.7285V8.99993H2.57143V3.7285C2.57143 2.3785 3.66428 1.28564 5.01428 1.28564H12.9857C14.3357 1.28564 15.4286 2.3785 15.4286 3.7285ZM15.4286 15.4285V16.3285C15.4286 16.3792 15.4186 16.4293 15.3992 16.4761C15.3798 16.5229 15.3514 16.5654 15.3156 16.6012C15.2798 16.6371 15.2373 16.6655 15.1905 16.6849C15.1437 16.7042 15.0935 16.7142 15.0429 16.7142H13.2429C13.1922 16.7142 13.142 16.7042 13.0952 16.6849C13.0485 16.6655 13.0059 16.6371 12.9701 16.6012C12.9343 16.5654 12.9059 16.5229 12.8865 16.4761C12.8671 16.4293 12.8571 16.3792 12.8571 16.3285V15.4285H15.4286ZM5.14285 15.4285V16.3285C5.14285 16.3792 5.13288 16.4293 5.11349 16.4761C5.09411 16.5229 5.0657 16.5654 5.02988 16.6012C4.99407 16.6371 4.95154 16.6655 4.90475 16.6849C4.85795 16.7042 4.80779 16.7142 4.75714 16.7142H2.95714C2.90649 16.7142 2.85633 16.7042 2.80953 16.6849C2.76274 16.6655 2.72022 16.6371 2.6844 16.6012C2.64858 16.5654 2.62017 16.5229 2.60079 16.4761C2.5814 16.4293 2.57143 16.3792 2.57143 16.3285V15.4285H5.14285ZM7.07143 11.8928C7.07143 12.1485 6.96983 12.3938 6.78899 12.5746C6.60816 12.7555 6.36288 12.8571 6.10714 12.8571C5.8514 12.8571 5.60613 12.7555 5.42529 12.5746C5.24445 12.3938 5.14285 12.1485 5.14285 11.8928C5.14285 11.637 5.24445 11.3918 5.42529 11.2109C5.60613 11.0301 5.8514 10.9285 6.10714 10.9285C6.36288 10.9285 6.60816 11.0301 6.78899 11.2109C6.96983 11.3918 7.07143 11.637 7.07143 11.8928ZM11.8929 12.8571C11.6371 12.8571 11.3918 12.7555 11.211 12.5746C11.0302 12.3938 10.9286 12.1485 10.9286 11.8928C10.9286 11.637 11.0302 11.3918 11.211 11.2109C11.3918 11.0301 11.6371 10.9285 11.8929 10.9285C12.1486 10.9285 12.3939 11.0301 12.5747 11.2109C12.7555 11.3918 12.8571 11.637 12.8571 11.8928C12.8571 12.1485 12.7555 12.3938 12.5747 12.5746C12.3939 12.7555 12.1486 12.8571 11.8929 12.8571Z" fill="#447ABB"/>
</svg>
