<svg width="10" height="10" viewBox="0 0 10 10" fill="none" xmlns="http://www.w3.org/2000/svg">
<path d="M10 0.555556C10 0.248731 9.75127 0 9.44444 0C9.13762 0 8.88889 0.248731 8.88889 0.555556V4.44444C8.88889 4.88647 8.71329 5.3104 8.40073 5.62296C8.08817 5.93552 7.66425 6.11111 7.22222 6.11111H1.89679L3.72617 4.28173C3.94313 4.06477 3.94313 3.71301 3.72617 3.49605C3.50921 3.27909 3.15745 3.27909 2.9405 3.49605L0.162718 6.27383C-0.0542395 6.49079 -0.0542395 6.84255 0.162718 7.0595L2.9405 9.83728C3.15745 10.0542 3.50921 10.0542 3.72617 9.83728C3.94313 9.62032 3.94313 9.26857 3.72617 9.05161L1.89679 7.22222H7.22222C7.95893 7.22222 8.66547 6.92956 9.18641 6.40863C9.70734 5.8877 10 5.18116 10 4.44444V0.555556Z" fill="#14AE5C"/>
</svg>
