<svg width="191" height="43" viewBox="0 0 191 43" fill="none" xmlns="http://www.w3.org/2000/svg">
<path d="M18.7326 40.1747L3.92056 31.5942L18.7326 23.014L33.5453 31.5942L18.7326 40.1747ZM15.1618 4.89381L2.61406 26.7005V12.1627L15.1618 4.89381ZM32.5879 28.0118L19.386 20.364C18.982 20.1299 18.4835 20.1299 18.0792 20.364L4.87764 28.0118L18.7326 3.93356L32.5879 28.0118ZM34.8508 26.7002L22.3034 4.89414L34.8508 12.1627V26.7002ZM36.8124 10.2701L19.386 0.175831C18.9816 -0.058609 18.4835 -0.058609 18.0792 0.175831L0.653416 10.2701C0.249038 10.5042 0 10.9371 0 11.4057V31.5945C0 32.0631 0.249038 32.4956 0.653416 32.7301L18.0792 42.8243C18.2814 42.9416 18.507 43 18.7326 43C18.9582 43 19.1838 42.9416 19.386 42.8243L36.8124 32.7301C37.2175 32.4956 37.4652 32.0631 37.4652 31.5945V11.4057C37.4652 10.9371 37.2175 10.5042 36.8124 10.2701Z" fill="white"/>
<path d="M61.5259 22.7714C59.8585 18.6513 59.0464 16.5514 58.6169 15.1781H58.5915C58.1905 16.5226 57.2394 19.2569 55.8924 22.7714H61.5259ZM54.767 26.2675L53.2034 30.3477H48.7314L55.9473 12.3709H61.5229L69.1083 30.3477H64.4061L62.7411 26.2675H54.767Z" fill="white"/>
<path d="M74.8175 12.371V22.5344C74.8175 26.3573 76.8166 27.3239 79.0182 27.3239C81.3622 27.3239 82.9288 26.3116 82.9288 22.5344V12.371H87.2768V22.6765C87.2768 28.1307 84.2212 30.7303 78.8971 30.7303C73.7463 30.7303 70.4697 28.3537 70.4697 22.7742V12.371H74.8175Z" fill="white"/>
<path d="M96.0886 15.8451H89.7822V12.3709H106.723V15.8451H100.439V30.3477H96.0886V15.8451Z" fill="white"/>
<path d="M113.598 12.3709V30.3477H109.25V12.3709H113.598Z" fill="white"/>
<path d="M118.535 12.3709H122.88V26.8512H132.91L132.34 30.3477H118.535V12.3709Z" fill="white"/>
<path d="M149.823 22.7627H139.827V26.8543H150.944L150.442 30.3477H135.479V12.3709H150.365V15.8642H139.827V19.2693H149.823V22.7627Z" fill="white"/>
<path d="M154.147 30.3477V12.3709H159.299C164.331 20.0791 166.339 22.8839 167.464 25.0211H167.514C167.34 23.1338 167.363 19.7694 167.363 16.8117V12.3709H171.347V30.3477H166.523C164.833 27.6701 159.102 18.7353 158.034 16.6814H157.984C158.131 18.9005 158.131 21.4558 158.131 24.6496V30.3477H154.147Z" fill="white"/>
<path d="M180.365 15.8451H174.058V12.3709H191V15.8451H184.717V30.3477H180.365V15.8451Z" fill="white"/>
</svg>
