<svg width="9" height="10" viewBox="0 0 9 10" fill="none" xmlns="http://www.w3.org/2000/svg">
<path d="M3.55556 4.09091C3.80102 4.09091 4 4.29442 4 4.54545V7.27273C4 7.52377 3.80102 7.72727 3.55556 7.72727C3.3101 7.72727 3.11111 7.52377 3.11111 7.27273V4.54545C3.11111 4.29442 3.3101 4.09091 3.55556 4.09091Z" fill="#FF0000"/>
<path d="M5.77778 7.27273V4.54545C5.77778 4.29442 5.57879 4.09091 5.33333 4.09091C5.08787 4.09091 4.88889 4.29442 4.88889 4.54545V7.27273C4.88889 7.52377 5.08787 7.72727 5.33333 7.72727C5.57879 7.72727 5.77778 7.52377 5.77778 7.27273Z" fill="#FF0000"/>
<path fill-rule="evenodd" clip-rule="evenodd" d="M2.22222 1.81818V1.36364C2.22222 1.00198 2.3627 0.655131 2.61275 0.3994C2.8628 0.143668 3.20193 0 3.55556 0H5.33333C5.68696 0 6.02609 0.143668 6.27614 0.3994C6.52619 0.655131 6.66667 1.00198 6.66667 1.36364V1.81818H8.44444C8.68991 1.81818 8.88889 2.02169 8.88889 2.27273C8.88889 2.52377 8.68991 2.72727 8.44444 2.72727H8V8.63636C8 8.99802 7.85952 9.34487 7.60948 9.6006C7.35943 9.85633 7.02029 10 6.66667 10H2.22222C1.8686 10 1.52946 9.85633 1.27941 9.6006C1.02936 9.34487 0.888889 8.99802 0.888889 8.63636V2.72727H0.444444C0.198985 2.72727 0 2.52377 0 2.27273C0 2.02169 0.198985 1.81818 0.444444 1.81818H2.22222ZM3.24129 1.04222C3.32464 0.95698 3.43768 0.909091 3.55556 0.909091H5.33333C5.45121 0.909091 5.56425 0.95698 5.6476 1.04222C5.73095 1.12747 5.77778 1.24308 5.77778 1.36364V1.81818H3.11111V1.36364C3.11111 1.24308 3.15794 1.12747 3.24129 1.04222ZM1.77778 2.72727V8.63636C1.77778 8.75692 1.8246 8.87253 1.90795 8.95778C1.9913 9.04302 2.10435 9.09091 2.22222 9.09091H6.66667C6.78454 9.09091 6.89759 9.04302 6.98094 8.95778C7.06429 8.87253 7.11111 8.75692 7.11111 8.63636V2.72727H1.77778Z" fill="#FF0000"/>
</svg>
