<svg width="25" height="21" viewBox="0 0 25 21" fill="none" xmlns="http://www.w3.org/2000/svg">
<path d="M24.9139 10.7033C24.9139 10.151 24.4662 9.70328 23.9139 9.70328L14.9139 9.70328C14.3616 9.70328 13.9139 10.151 13.9139 10.7033C13.9139 11.2556 14.3616 11.7033 14.9139 11.7033L22.9139 11.7033L22.9139 19.7033C22.9139 20.2556 23.3616 20.7033 23.9139 20.7033C24.4662 20.7033 24.9139 20.2556 24.9139 19.7033L24.9139 10.7033ZM16.1285 19.9029L24.621 11.4104L23.2068 9.99617L14.7143 18.4887L16.1285 19.9029Z" fill="#447ABB"/>
<path d="M0.267245 10.703C0.267245 11.2553 0.71496 11.703 1.26725 11.703L10.2672 11.703C10.8195 11.703 11.2672 11.2553 11.2672 10.703C11.2672 10.1507 10.8195 9.70297 10.2672 9.70297L2.26724 9.70297L2.26725 1.70297C2.26725 1.15068 1.81953 0.70297 1.26725 0.70297C0.71496 0.70297 0.267245 1.15068 0.267245 1.70297L0.267245 10.703ZM9.05266 1.50334L0.560138 9.99586L1.97435 11.4101L10.4669 2.91756L9.05266 1.50334Z" fill="#447ABB"/>
</svg>
