<svg width="14" height="18" viewBox="0 0 14 18" fill="none" xmlns="http://www.w3.org/2000/svg">
<path d="M3.09375 4.5C2.86997 4.5 2.65536 4.58889 2.49713 4.74713C2.33889 4.90536 2.25 5.11997 2.25 5.34375V9.28125C2.25 9.747 2.628 10.125 3.09375 10.125H10.4062C10.63 10.125 10.8446 10.0361 11.0029 9.87787C11.1611 9.71964 11.25 9.50503 11.25 9.28125V5.34375C11.25 5.11997 11.1611 4.90536 11.0029 4.74713C10.8446 4.58889 10.63 4.5 10.4062 4.5H3.09375Z" fill="#447ABB"/>
<path d="M3.375 9V5.625H10.125V9H3.375ZM3.375 2.8125C3.375 2.96168 3.31574 3.10476 3.21025 3.21025C3.10476 3.31574 2.96168 3.375 2.8125 3.375C2.66332 3.375 2.52024 3.31574 2.41475 3.21025C2.30926 3.10476 2.25 2.96168 2.25 2.8125C2.25 2.66332 2.30926 2.52024 2.41475 2.41475C2.52024 2.30926 2.66332 2.25 2.8125 2.25C2.96168 2.25 3.10476 2.30926 3.21025 2.41475C3.31574 2.52024 3.375 2.66332 3.375 2.8125ZM11.25 2.8125C11.25 2.96168 11.1907 3.10476 11.0852 3.21025C10.9798 3.31574 10.8367 3.375 10.6875 3.375C10.5383 3.375 10.3952 3.31574 10.2898 3.21025C10.1843 3.10476 10.125 2.96168 10.125 2.8125C10.125 2.66332 10.1843 2.52024 10.2898 2.41475C10.3952 2.30926 10.5383 2.25 10.6875 2.25C10.8367 2.25 10.9798 2.30926 11.0852 2.41475C11.1907 2.52024 11.25 2.66332 11.25 2.8125Z" fill="#447ABB"/>
<path d="M2.8125 12.375C2.96168 12.375 3.10476 12.3157 3.21025 12.2102C3.31574 12.1048 3.375 11.9617 3.375 11.8125C3.375 11.6633 3.31574 11.5202 3.21025 11.4148C3.10476 11.3093 2.96168 11.25 2.8125 11.25C2.66332 11.25 2.52024 11.3093 2.41475 11.4148C2.30926 11.5202 2.25 11.6633 2.25 11.8125C2.25 11.9617 2.30926 12.1048 2.41475 12.2102C2.52024 12.3157 2.66332 12.375 2.8125 12.375ZM10.6875 12.375C10.8367 12.375 10.9798 12.3157 11.0852 12.2102C11.1907 12.1048 11.25 11.9617 11.25 11.8125C11.25 11.6633 11.1907 11.5202 11.0852 11.4148C10.9798 11.3093 10.8367 11.25 10.6875 11.25C10.5383 11.25 10.3952 11.3093 10.2898 11.4148C10.1843 11.5202 10.125 11.6633 10.125 11.8125C10.125 11.9617 10.1843 12.1048 10.2898 12.2102C10.3952 12.3157 10.5383 12.375 10.6875 12.375Z" fill="#447ABB"/>
<path d="M0 2.25C0 1.65326 0.237053 1.08097 0.65901 0.65901C1.08097 0.237053 1.65326 0 2.25 0L11.25 0C11.8467 0 12.419 0.237053 12.841 0.65901C13.2629 1.08097 13.5 1.65326 13.5 2.25V15.75C13.5 16.3467 13.2629 16.919 12.841 17.341C12.419 17.7629 11.8467 18 11.25 18H2.25C1.65326 18 1.08097 17.7629 0.65901 17.341C0.237053 16.919 0 16.3467 0 15.75V2.25ZM12.375 15.75V2.25C12.375 1.95163 12.2565 1.66548 12.0455 1.4545C11.8345 1.24353 11.5484 1.125 11.25 1.125H2.25C1.95163 1.125 1.66548 1.24353 1.4545 1.4545C1.24353 1.66548 1.125 1.95163 1.125 2.25V15.75C1.125 16.0484 1.24353 16.3345 1.4545 16.5455C1.66548 16.7565 1.95163 16.875 2.25 16.875V14.625C2.25 14.3266 2.36853 14.0405 2.5795 13.8295C2.79048 13.6185 3.07663 13.5 3.375 13.5H10.125C10.4234 13.5 10.7095 13.6185 10.9205 13.8295C11.1315 14.0405 11.25 14.3266 11.25 14.625V16.875C11.5484 16.875 11.8345 16.7565 12.0455 16.5455C12.2565 16.3345 12.375 16.0484 12.375 15.75ZM4.21875 16.875V14.625H3.375V16.875H4.21875ZM6.1875 16.875V14.625H5.34375V16.875H6.1875ZM8.15625 16.875V14.625H7.3125V16.875H8.15625Z" fill="#447ABB"/>
<path d="M10.125 14.625H9.28125V16.875H10.125V14.625Z" fill="#447ABB"/>
</svg>
