<svg width="10" height="10" viewBox="0 0 10 10" fill="none" xmlns="http://www.w3.org/2000/svg">
<path fill-rule="evenodd" clip-rule="evenodd" d="M8.24613 0C8.01581 0 7.78774 0.0453651 7.57495 0.133505C7.36216 0.221646 7.16882 0.350835 7.00596 0.513697L0.821367 6.69829C0.764993 6.75466 0.724306 6.82477 0.70333 6.90169L0.0161529 9.42133C-0.0271032 9.57994 0.0179428 9.74956 0.13419 9.86581C0.250438 9.98206 0.420061 10.0271 0.578667 9.98385L3.09831 9.29667C3.17523 9.27569 3.24534 9.23501 3.30171 9.17863L9.4863 2.99404C9.64917 2.83118 9.77836 2.63784 9.8665 2.42505C9.95464 2.21226 10 1.98419 10 1.75387C10 1.52355 9.95464 1.29548 9.8665 1.08269C9.77836 0.869903 9.64917 0.676558 9.4863 0.513697C9.32344 0.350835 9.1301 0.221646 8.91731 0.133505C8.70452 0.0453651 8.47645 0 8.24613 0ZM7.92558 0.979997C8.02721 0.937902 8.13613 0.916236 8.24613 0.916236C8.35613 0.916236 8.46505 0.937902 8.56668 0.979997C8.66831 1.02209 8.76065 1.08379 8.83843 1.16157C8.91621 1.23936 8.97791 1.3317 9.02 1.43332C9.0621 1.53495 9.08377 1.64387 9.08377 1.75387C9.08377 1.86387 9.0621 1.97279 9.02 2.07442C8.97791 2.17605 8.91621 2.26839 8.83843 2.34617L2.73986 8.44473L1.11105 8.88895L1.55527 7.26014L7.65383 1.16157C7.73161 1.08379 7.82395 1.02209 7.92558 0.979997Z" fill="#76BBE2" fill-opacity="0.83"/>
</svg>
