<svg width="60" height="68" viewBox="0 0 60 68" fill="none" xmlns="http://www.w3.org/2000/svg">
<path d="M30.0002 63.532L6.46139 49.9629L30.0002 36.3943L53.54 49.9629L30.0002 63.532ZM24.3256 7.73905L4.38513 42.2241V19.2341L24.3256 7.73905ZM52.0186 44.2977L31.0386 32.2036C30.3965 31.8333 29.6044 31.8333 28.9618 32.2036L7.98235 44.2977L30.0002 6.22052L52.0186 44.2977ZM55.6147 42.2236L35.6748 7.73957L55.6147 19.2341V42.2236ZM58.7321 16.2411L31.0386 0.278053C30.396 -0.0926819 29.6044 -0.0926819 28.9618 0.278053L1.26935 16.2411C0.626721 16.6113 0.230957 17.2959 0.230957 18.0369V49.9634C0.230957 50.7044 0.626721 51.3885 1.26935 51.7592L28.9618 67.7222C29.2831 67.9076 29.6416 68 30.0002 68C30.3587 68 30.7173 67.9076 31.0386 67.7222L58.7321 51.7592C59.3758 51.3885 59.7694 50.7044 59.7694 49.9634V18.0369C59.7694 17.2959 59.3758 16.6113 58.7321 16.2411Z" fill="#447ABB"/>
</svg>
