<svg width="11" height="10" viewBox="0 0 11 10" fill="none" xmlns="http://www.w3.org/2000/svg">
<path d="M4.05554 8.5L1.45054 9.3685C1.40541 9.38357 1.35733 9.38768 1.31029 9.38051C1.26325 9.37333 1.2186 9.35507 1.18001 9.32722C1.14142 9.29938 1.11001 9.26276 1.08836 9.22038C1.06672 9.178 1.05547 9.13108 1.05554 9.0835V1.7165C1.05556 1.65357 1.07536 1.59224 1.11215 1.54118C1.14894 1.49012 1.20085 1.45193 1.26054 1.432L4.05554 0.5M4.05554 8.5L7.05554 9.5M4.05554 8.5V0.5M7.05554 9.5L9.85054 8.5685C9.91032 8.54854 9.96229 8.51027 9.99908 8.45912C10.0359 8.40796 10.0556 8.34652 10.0555 8.2835V0.916C10.0555 0.868458 10.0442 0.821599 10.0225 0.779285C10.0009 0.736972 9.96945 0.700415 9.93087 0.67263C9.8923 0.644844 9.84767 0.626625 9.80067 0.619474C9.75367 0.612323 9.70564 0.616445 9.66054 0.6315L7.05554 1.5M7.05554 9.5V1.5M7.05554 1.5L4.05554 0.5" stroke="#8DC7E7" stroke-width="0.8" stroke-linecap="round" stroke-linejoin="round"/>
</svg>
