<svg width="23" height="25" viewBox="0 0 23 25" fill="none" xmlns="http://www.w3.org/2000/svg">
<path d="M11.3614 7.61267C10.4897 7.61267 9.63764 7.87116 8.91285 8.35544C8.18807 8.83972 7.62317 9.52806 7.28959 10.3334C6.95601 11.1387 6.86873 12.0249 7.03879 12.8798C7.20885 13.7348 7.6286 14.5201 8.24498 15.1365C8.86136 15.7528 9.64667 16.1726 10.5016 16.3426C11.3565 16.5127 12.2427 16.4254 13.048 16.0918C13.8534 15.7583 14.5417 15.1934 15.026 14.4686C15.5103 13.7438 15.7688 12.8917 15.7688 12.02C15.7674 10.8515 15.3027 9.73126 14.4764 8.90501C13.6502 8.07876 12.5299 7.614 11.3614 7.61267ZM11.3614 14.8247C10.8067 14.8247 10.2645 14.6602 9.80325 14.352C9.34202 14.0438 8.98254 13.6058 8.77026 13.0933C8.55798 12.5808 8.50244 12.0169 8.61066 11.4728C8.71888 10.9288 8.986 10.429 9.37824 10.0368C9.77048 9.64457 10.2702 9.37745 10.8143 9.26923C11.3583 9.16101 11.9222 9.21655 12.4347 9.42883C12.9472 9.64111 13.3852 10.0006 13.6934 10.4618C14.0016 10.923 14.1661 11.4653 14.1661 12.02C14.1653 12.7636 13.8695 13.4765 13.3437 14.0023C12.8179 14.5281 12.105 14.8238 11.3614 14.8247Z" fill="#999999"/>
<path d="M22.357 15.3415L20.7659 14.0316C21.0479 12.7054 21.0479 11.3346 20.7659 10.0084L22.357 8.69853C22.5405 8.54817 22.6645 8.33739 22.7068 8.10394C22.7491 7.87049 22.7068 7.62961 22.5877 7.42446L20.9544 4.5956C20.8363 4.38977 20.6488 4.23272 20.4254 4.1526C20.2021 4.07248 19.9575 4.07453 19.7355 4.15837L17.8042 4.88193C16.7982 3.97295 15.6113 3.28697 14.3214 2.86898L13.9826 0.837046C13.9442 0.602873 13.8237 0.390018 13.6426 0.236632C13.4616 0.0832462 13.2318 -0.000641906 12.9945 3.69883e-06H9.728C9.49072 -0.00063369 9.26096 0.083251 9.07991 0.236625C8.89885 0.389999 8.77834 0.602837 8.73995 0.836996L8.40129 2.86898C7.11145 3.28695 5.92456 3.97294 4.9185 4.88193L2.98704 4.15827C2.76506 4.07448 2.52051 4.07247 2.29719 4.1526C2.07387 4.23272 1.88638 4.38975 1.76831 4.59555L0.135042 7.42461C0.0159248 7.62978 -0.0262587 7.87066 0.016047 8.1041C0.0583526 8.33754 0.182384 8.5483 0.365926 8.69863L1.95692 10.0084C1.67485 11.3346 1.67485 12.7054 1.95692 14.0316L0.365776 15.3415C0.182263 15.4918 0.0582655 15.7026 0.0159882 15.9361C-0.0262891 16.1695 0.0159147 16.4104 0.135042 16.6155L1.76836 19.4444C1.88644 19.6502 2.07396 19.8073 2.29731 19.8874C2.52067 19.9675 2.76525 19.9655 2.98724 19.8816L4.91855 19.1581C5.92461 20.0671 7.1115 20.753 8.40134 21.171L8.74001 23.203C8.77838 23.4371 8.89888 23.65 9.07992 23.8033C9.26097 23.9567 9.49072 24.0406 9.728 24.04H12.9945C13.2318 24.0406 13.4616 23.9568 13.6426 23.8034C13.8237 23.65 13.9442 23.4372 13.9826 23.203L14.3213 21.171C15.6111 20.753 16.798 20.067 17.8041 19.1581L19.7355 19.8817C19.9575 19.9655 20.202 19.9675 20.4253 19.8874C20.6487 19.8073 20.8361 19.6502 20.9542 19.4445L22.5874 16.6154C22.7065 16.4103 22.7488 16.1695 22.7066 15.936C22.6644 15.7026 22.5404 15.4919 22.357 15.3415ZM19.821 18.2022L17.4115 17.2995L17.0467 17.6668C16.0428 18.6786 14.7872 19.4043 13.4094 19.769L12.9085 19.901L12.4856 22.4373H10.2373L9.81454 19.901L9.31371 19.769C7.93586 19.4043 6.68025 18.6786 5.67641 17.6668L5.31155 17.2995L2.90169 18.2022L1.77777 16.2551L3.76253 14.6212L3.6273 14.1217C3.25542 12.7453 3.25542 11.2947 3.6273 9.91825L3.76253 9.41882L1.77777 7.7849L2.90194 5.83777L5.3114 6.74047L5.67626 6.37316C6.6801 5.36135 7.93571 4.63568 9.31356 4.27101L9.81439 4.13899L10.2371 1.60267H12.4856L12.9084 4.13899L13.4092 4.27101C14.7871 4.63568 16.0427 5.36135 17.0465 6.37316L17.4114 6.74047L19.8208 5.83777L20.9451 7.78486L18.9603 9.41882L19.0955 9.91825C19.4674 11.2947 19.4674 12.7453 19.0955 14.1217L18.9603 14.6212L20.9451 16.2551L19.821 18.2022Z" fill="#999999"/>
</svg>
