<svg width="29" height="16" viewBox="0 0 29 16" fill="none" xmlns="http://www.w3.org/2000/svg">
<path d="M25.291 7.27273C24.9545 7.27523 24.6212 7.34076 24.307 7.46618L20.9504 4.61091C21.033 4.29964 21.0918 3.97673 21.0918 3.63636C21.0918 1.62036 19.5325 0 17.5925 0C15.6524 0 14.0931 1.62036 14.0931 3.63636C14.0931 4.21236 14.2331 4.74909 14.4598 5.232L10.388 10.2327C10.225 10.201 10.0597 10.184 9.89389 10.1818C9.64334 10.1818 9.40678 10.2255 9.17722 10.2895L5.58969 6.56145C5.65267 6.32436 5.69467 6.07855 5.69467 5.81818C5.69467 4.20655 4.4461 2.90909 2.89518 2.90909C1.34427 2.90909 0.0957031 4.20655 0.0957031 5.81818C0.0957031 7.42982 1.34427 8.72727 2.89518 8.72727C3.14574 8.72727 3.38229 8.68364 3.61185 8.61964L7.19939 12.3476C7.1321 12.5893 7.09679 12.8394 7.09441 13.0909C7.09441 14.7025 8.34298 16 9.89389 16C11.4448 16 12.6934 14.7025 12.6934 13.0909C12.6934 12.7462 12.6262 12.4218 12.5212 12.1149L16.5986 7.10836C16.9164 7.20436 17.2453 7.27273 17.5925 7.27273C18.1449 7.26955 18.6886 7.12943 19.1784 6.864L22.5363 9.71927C22.51 9.87203 22.495 10.0267 22.4916 10.1818C22.4916 11.7935 23.7401 13.0909 25.291 13.0909C26.8419 13.0909 28.0905 11.7935 28.0905 10.1818C28.0905 8.57018 26.8419 7.27273 25.291 7.27273Z" fill="white"/>
</svg>
