<svg width="18" height="18" viewBox="0 0 18 18" fill="none" xmlns="http://www.w3.org/2000/svg">
<path d="M5.01429 0C4.52464 0 4.03979 0.0964424 3.58742 0.283821C3.13505 0.471199 2.72402 0.745843 2.37779 1.09207C1.67854 1.79132 1.28571 2.73969 1.28571 3.72857V6.42857H0.642857C0.472361 6.42857 0.308848 6.4963 0.188288 6.61686C0.0677294 6.73742 0 6.90093 0 7.07143C0 7.24192 0.0677294 7.40544 0.188288 7.526C0.308848 7.64656 0.472361 7.71429 0.642857 7.71429H1.28571V16.3286C1.28571 16.7719 1.46181 17.197 1.77526 17.5105C2.08872 17.8239 2.51385 18 2.95714 18H4.75714C4.97664 18 5.19398 17.9568 5.39677 17.8728C5.59956 17.7888 5.78381 17.6657 5.93902 17.5105C6.09423 17.3552 6.21734 17.171 6.30134 16.9682C6.38534 16.7654 6.42857 16.5481 6.42857 16.3286V15.4286H11.5714V16.3286C11.5714 16.7719 11.7475 17.197 12.061 17.5105C12.3744 17.8239 12.7996 18 13.2429 18H15.0429C15.4861 18 15.9113 17.8239 16.2247 17.5105C16.5382 17.197 16.7143 16.7719 16.7143 16.3286V7.71429H17.3571C17.5276 7.71429 17.6912 7.64656 17.8117 7.526C17.9323 7.40544 18 7.24192 18 7.07143C18 6.90093 17.9323 6.73742 17.8117 6.61686C17.6912 6.4963 17.5276 6.42857 17.3571 6.42857H16.7143V3.72857C16.7143 2.73969 16.3215 1.79132 15.6222 1.09207C14.923 0.392831 13.9746 0 12.9857 0H5.01429Z" fill="#447ABB"/>
<path d="M15.4284 3.72862V9.00005H2.57129V3.72862C2.57129 2.37862 3.66415 1.28577 5.01415 1.28577H12.9856C14.3356 1.28577 15.4284 2.37862 15.4284 3.72862ZM15.4284 15.4286V16.3286C15.4284 16.3793 15.4185 16.4294 15.3991 16.4762C15.3797 16.523 15.3513 16.5655 15.3155 16.6014C15.2796 16.6372 15.2371 16.6656 15.1903 16.685C15.1435 16.7044 15.0934 16.7143 15.0427 16.7143H13.2427C13.1921 16.7143 13.1419 16.7044 13.0951 16.685C13.0483 16.6656 13.0058 16.6372 12.97 16.6014C12.9342 16.5655 12.9057 16.523 12.8864 16.4762C12.867 16.4294 12.857 16.3793 12.857 16.3286V15.4286H15.4284ZM5.14272 15.4286V16.3286C5.14272 16.3793 5.13274 16.4294 5.11336 16.4762C5.09397 16.523 5.06556 16.5655 5.02974 16.6014C4.99393 16.6372 4.95141 16.6656 4.90461 16.685C4.85781 16.7044 4.80766 16.7143 4.757 16.7143H2.957C2.90635 16.7143 2.85619 16.7044 2.8094 16.685C2.7626 16.6656 2.72008 16.6372 2.68426 16.6014C2.64845 16.5655 2.62003 16.523 2.60065 16.4762C2.58127 16.4294 2.57129 16.3793 2.57129 16.3286V15.4286H5.14272ZM7.07129 11.8929C7.07129 12.1487 6.9697 12.3939 6.78886 12.5748C6.60802 12.7556 6.36275 12.8572 6.107 12.8572C5.85126 12.8572 5.60599 12.7556 5.42515 12.5748C5.24431 12.3939 5.14272 12.1487 5.14272 11.8929C5.14272 11.6372 5.24431 11.3919 5.42515 11.2111C5.60599 11.0302 5.85126 10.9286 6.107 10.9286C6.36275 10.9286 6.60802 11.0302 6.78886 11.2111C6.9697 11.3919 7.07129 11.6372 7.07129 11.8929ZM11.8927 12.8572C11.637 12.8572 11.3917 12.7556 11.2109 12.5748C11.03 12.3939 10.9284 12.1487 10.9284 11.8929C10.9284 11.6372 11.03 11.3919 11.2109 11.2111C11.3917 11.0302 11.637 10.9286 11.8927 10.9286C12.1485 10.9286 12.3937 11.0302 12.5746 11.2111C12.7554 11.3919 12.857 11.6372 12.857 11.8929C12.857 12.1487 12.7554 12.3939 12.5746 12.5748C12.3937 12.7556 12.1485 12.8572 11.8927 12.8572Z" fill="#F8F8F8"/>
</svg>
