<svg width="15" height="10" viewBox="0 0 15 10" fill="none" xmlns="http://www.w3.org/2000/svg">
<path fill-rule="evenodd" clip-rule="evenodd" d="M0.355591 2.3C0.355591 1.82261 0.545233 1.36477 0.882799 1.02721C1.22036 0.689642 1.6782 0.5 2.15559 0.5H8.90559C9.34217 0.499949 9.7639 0.658573 10.0922 0.946335C10.4205 1.2341 10.6331 1.63138 10.6903 2.0642L13.4893 0.8204C13.6263 0.759354 13.7764 0.733517 13.9259 0.745237C14.0754 0.756957 14.2197 0.805861 14.3455 0.887506C14.4713 0.969151 14.5747 1.08095 14.6464 1.21273C14.718 1.34452 14.7555 1.49211 14.7556 1.6421V8.3579C14.7555 8.50777 14.7179 8.65524 14.6463 8.78692C14.5748 8.91859 14.4714 9.03031 14.3457 9.11193C14.22 9.19356 14.076 9.2425 13.9265 9.25431C13.7771 9.26613 13.6272 9.24045 13.4902 9.1796L10.6903 7.9358C10.6331 8.36862 10.4205 8.7659 10.0922 9.05367C9.7639 9.34143 9.34217 9.50005 8.90559 9.5H2.15559C1.6782 9.5 1.22036 9.31036 0.882799 8.97279C0.545233 8.63523 0.355591 8.17739 0.355591 7.7V2.3ZM10.7056 6.9575L13.8556 8.3579V1.6421L10.7056 3.0425V6.9575ZM2.15559 1.4C1.9169 1.4 1.68798 1.49482 1.51919 1.6636C1.35041 1.83239 1.25559 2.06131 1.25559 2.3V7.7C1.25559 7.93869 1.35041 8.16761 1.51919 8.3364C1.68798 8.50518 1.9169 8.6 2.15559 8.6H8.90559C9.14429 8.6 9.3732 8.50518 9.54199 8.3364C9.71077 8.16761 9.80559 7.93869 9.80559 7.7V2.3C9.80559 2.06131 9.71077 1.83239 9.54199 1.6636C9.3732 1.49482 9.14429 1.4 8.90559 1.4H2.15559Z" fill="#8DC7E7"/>
</svg>
