<svg width="16" height="17" viewBox="0 0 16 17" fill="none" xmlns="http://www.w3.org/2000/svg">
<path d="M11.4524 14.3167C12.0717 14.3167 12.5738 13.8146 12.5738 13.1953C12.5738 12.576 12.0717 12.074 11.4524 12.074C10.8331 12.074 10.3311 12.576 10.3311 13.1953C10.3311 13.8146 10.8331 14.3167 11.4524 14.3167Z" fill="#447ABB"/>
<path d="M15.8126 12.903C15.4662 12.0204 14.8683 11.2589 14.0933 10.7129C13.3182 10.1668 12.3999 9.8602 11.4522 9.83105C10.5045 9.8602 9.58624 10.1668 8.81115 10.7129C8.03606 11.2589 7.43826 12.0204 7.09183 12.903L6.9668 13.1951L7.09183 13.4872C7.43826 14.3698 8.03606 15.1313 8.81115 15.6774C9.58624 16.2234 10.5045 16.53 11.4522 16.5592C12.3999 16.53 13.3182 16.2234 14.0933 15.6774C14.8683 15.1313 15.4662 14.3698 15.8126 13.4872L15.9376 13.1951L15.8126 12.903Z" fill="#447ABB"/>
<path d="M11.4522 15.438C11.0086 15.438 10.575 15.3065 10.2062 15.0601C9.83739 14.8136 9.54993 14.4634 9.38019 14.0536C9.21044 13.6438 9.16603 13.1929 9.25257 12.7578C9.3391 12.3228 9.5527 11.9232 9.86635 11.6095C10.18 11.2959 10.5796 11.0823 11.0146 10.9957C11.4497 10.9092 11.9006 10.9536 12.3104 11.1234C12.7202 11.2931 13.0705 11.5806 13.3169 11.9494C13.5633 12.3182 13.6949 12.7518 13.6949 13.1953C13.6941 13.7899 13.4576 14.3599 13.0372 14.7804C12.6168 15.2008 12.0468 15.4373 11.4522 15.438Z" fill="white"/>
<path d="M3.04199 9.27058H5.84537V10.3919H3.04199V9.27058ZM3.04199 6.4672H9.7701V7.58855H3.04199V6.4672ZM3.04199 3.66382H9.7701V4.78517H3.04199V3.66382Z" fill="#447ABB"/>
<path d="M11.4523 0.860352H1.36012C1.06299 0.861239 0.778288 0.979666 0.568186 1.18977C0.358084 1.39987 0.239657 1.68458 0.23877 1.9817V15.4379C0.239657 15.7351 0.358084 16.0198 0.568186 16.2299C0.778288 16.44 1.06299 16.5584 1.36012 16.5593H5.84553V15.4379H1.36012V1.9817H11.4523V8.14914H12.5736V1.9817C12.5728 1.68458 12.4543 1.39987 12.2442 1.18977C12.0341 0.979666 11.7494 0.861239 11.4523 0.860352Z" fill="#447ABB"/>
</svg>
